<svg width="87" height="54" viewBox="0 0 87 54" fill="none" xmlns="http://www.w3.org/2000/svg">
<path d="M16.6583 37.0864L14.0371 45.1354L14.2415 45.3918L18.18 37.1901C18.3028 37.0825 19.8514 36.9183 19.9147 36.9817C19.9339 37.1286 19.8984 37.265 19.8667 37.4071C19.3313 39.8187 17.9449 42.4319 17.3347 44.8598C17.2992 45.0009 17.2225 45.2833 17.3405 45.3918L17.659 44.975L21.5889 36.9231C21.657 36.828 21.7472 36.7935 21.8585 36.7723C22.486 36.6552 23.3495 36.708 24.0096 36.561L21.2205 44.8598C21.1917 44.9693 21.0804 45.4072 21.3298 45.2852C22.8621 42.3378 24.2897 39.3318 25.6828 36.3161L27.6852 35.8244L27.6382 36.3546C26.8879 39.1935 25.3883 42.1764 24.7148 44.9942C24.5843 45.5388 24.9229 45.4274 25.063 45.0259L29.7365 35.3001C30.6997 34.8948 32.3135 34.161 32.6004 35.6909C30.3687 41.2929 27.7658 46.7969 25.3134 52.3201C24.7263 53.2545 23.7764 53.7549 22.6961 53.9057C18.6146 53.6915 14.2405 54.1938 10.1936 53.9114C8.90606 53.8212 7.87179 53.292 7.18387 52.1933C5.07982 47.0418 2.42121 41.994 0.359376 36.8415C0.114719 36.2307 -0.319907 35.4412 0.380484 34.9332C1.04058 34.454 3.02758 35.3337 3.8431 35.5632C4.28732 35.6881 5.80324 35.9224 6.05077 36.0876C6.19277 36.1817 6.13616 36.2297 6.11314 36.3536C5.97881 37.0787 5.42906 37.8883 5.41946 38.6624C5.69866 38.72 5.59984 38.5913 5.68043 38.4549C6.08915 37.7606 6.353 36.9759 6.78378 36.2921C6.87973 36.2316 8.86001 36.5294 8.99433 36.6091C9.28888 36.7858 7.33738 41.3726 7.41605 42.0266L10.1466 36.8242C11.0015 36.6888 11.8928 37.0797 12.7716 36.9807L10.1466 45.2852C10.3788 45.3467 10.5035 44.9875 10.5841 44.831C11.7431 42.575 12.7736 40.2345 13.9115 37.9632C14.0429 37.702 14.205 37.3755 14.2425 37.0854H16.6583V37.0864Z" fill="#501F0E"/>
<path d="M17.2886 11.8022C17.1955 12.631 16.6304 13.9506 16.0173 14.5249C13.8759 16.5293 9.61403 14.2848 8.29193 15.5708C7.52246 16.3189 7.93022 17.4455 8.65651 18.0505C10.3067 19.4258 15.4666 20.1989 17.658 20.3708C20.1823 20.5687 23.0519 20.197 25.3632 21.384C27.8635 22.6671 29.1482 26.4097 26.1452 27.9233C21.2165 30.4078 12.1115 25.3476 6.42678 26.0582C3.81422 26.3848 3.89769 28.7627 5.62948 30.2033C9.79153 33.6674 21.276 33.0239 26.4656 32.4487C27.2955 32.3565 29.6241 31.7601 30.2497 32.1577C31.52 32.9654 28.5774 34.0583 28.0564 34.2513C25.4563 35.2146 22.1069 35.6103 19.336 35.8254C13.0421 36.3152 -0.727766 36.3306 0.389981 26.744C0.705637 24.0385 3.79407 21.7384 6.41814 21.7384H8.04631L6.84125 20.8942C3.08601 17.8008 4.72377 11.9799 9.8702 12.3948C12.0136 12.5677 14.9907 14.2637 16.427 11.7821C16.8645 11.0262 17.0459 10.0927 17.0794 9.22743C17.1466 9.21975 17.2886 9.36765 17.2886 9.38494C17.2886 10.1292 17.3682 11.0944 17.2886 11.8032V11.8022Z" fill="#EE4998"/>
<path d="M13.7877 6.63917C14.9793 6.63629 16.429 7.66294 16.6334 8.8836C17.4547 13.7912 10.2454 13.7979 10.776 9.17363C10.9477 7.67447 12.336 6.64301 13.7877 6.63917ZM14.9438 7.57074C13.9613 7.60244 13.8404 9.23222 14.9256 9.23126C16.0951 9.23126 15.9541 7.53809 14.9438 7.57074Z" fill="#ED1B24"/>
<path d="M17.8855 3.05693C18.4324 3.79643 17.5574 3.52272 17.235 3.54097C16.0789 3.60531 14.8441 4.0615 14.3759 5.20628C14.254 5.50496 14.1715 6.26367 14.0861 6.38756C13.6928 6.95419 13.6793 5.94674 13.7273 5.60772C13.8299 4.88551 14.3404 3.99139 14.9266 3.54865C15.5128 3.10591 17.3943 2.39042 17.8865 3.05597L17.8855 3.05693Z" fill="black"/>
<path d="M33.0062 21.6491C32.4411 21.6491 31.9441 21.5473 31.5153 21.3446C31.0854 21.142 30.7141 20.8654 30.4004 20.5149C30.0857 20.1643 29.8238 19.7552 29.6127 19.2846C29.4016 18.815 29.2328 18.3175 29.1061 17.7922C28.9785 17.2668 28.8893 16.7232 28.8375 16.1624C28.7857 15.6015 28.7598 15.0541 28.7598 14.5201C28.7598 13.9861 28.7972 13.3955 28.873 12.8183C28.9488 12.2411 29.0697 11.6822 29.2366 11.1405C29.4035 10.5988 29.6165 10.0937 29.8746 9.62404C30.1327 9.15441 30.4417 8.74433 30.7995 8.39379C31.1574 8.04324 31.569 7.76665 32.0343 7.56401C32.4997 7.36137 33.0264 7.25957 33.6145 7.25957C33.9004 7.25957 34.2267 7.28742 34.5932 7.34312C34.9587 7.39882 35.3329 7.49198 35.7147 7.62355C36.0966 7.75513 36.4698 7.92608 36.8363 8.13736C37.2019 8.34865 37.5358 8.60891 37.838 8.91912L38.0769 8.89511C38.1325 8.77602 38.1997 8.64445 38.2793 8.50135C38.359 8.35825 38.4443 8.21323 38.5355 8.06533C38.6266 7.91839 38.7226 7.7753 38.8214 7.63508C38.9212 7.49582 39.0258 7.37097 39.1371 7.25861H41.7736C41.8293 7.48046 41.8791 7.80411 41.9223 8.23052C41.9655 8.65693 41.9876 9.12464 41.9876 9.63365C41.9876 9.99475 41.976 10.4721 41.9521 11.0675C41.9281 11.6629 41.8907 12.3285 41.8388 13.067C41.787 13.8056 41.7256 14.5931 41.6537 15.4296C41.5817 16.2661 41.4963 17.1151 41.3975 17.9765C41.2977 18.838 41.1845 19.6851 41.0579 20.5177C40.9303 21.3504 40.7911 22.1206 40.6405 22.8294L40.6645 22.8534L42.9077 22.1725C43.1619 22.427 43.3308 22.7074 43.4142 23.0147C43.4977 23.3211 43.5399 23.614 43.5399 23.8925C43.5399 23.9559 43.538 24.0193 43.5342 24.0837C43.5303 24.147 43.5246 24.2114 43.5159 24.2748C43.2214 24.705 42.8798 25.0873 42.4903 25.4215C42.3234 25.5646 42.1363 25.7058 41.93 25.845C41.7228 25.9843 41.4963 26.1082 41.2498 26.2148C41.0032 26.3223 40.7384 26.4078 40.4563 26.4712C40.1742 26.5346 39.8739 26.5663 39.5554 26.5663C39.2138 26.5663 38.8828 26.5221 38.5652 26.4337C38.2467 26.3454 37.9665 26.1908 37.7238 25.9699C37.4811 25.749 37.2882 25.4493 37.1453 25.0719C37.0023 24.6935 36.9342 24.2152 36.9428 23.6371C36.9505 23.1463 36.963 22.6863 36.9783 22.257C36.9946 21.8267 37.0215 21.3811 37.0618 20.9182C37.1011 20.4563 37.1529 19.9501 37.2172 19.3989C37.2806 18.8486 37.3602 18.207 37.4561 17.4752L37.0983 17.3657C36.6924 18.8207 36.158 19.8983 35.4941 20.5974C34.8301 21.2966 34.0012 21.6462 33.0072 21.6462L33.0062 21.6491ZM34.1163 17.6798C34.2113 17.6875 34.3792 17.5761 34.6171 17.3456C34.856 17.1151 35.118 16.8183 35.4048 16.4563C35.6908 16.0942 35.9757 15.6966 36.2578 15.2625C36.5399 14.8284 36.7692 14.4087 36.9438 14.0025C36.9678 13.8594 36.986 13.6999 36.9975 13.5251C37.009 13.3504 37.0157 13.1746 37.0157 12.9998C37.0157 12.7453 37.0062 12.5062 36.986 12.2834C36.9659 12.0606 36.9438 11.905 36.9208 11.8176C36.6895 11.6898 36.4631 11.5852 36.2405 11.5016C36.0179 11.4181 35.8107 11.3527 35.6198 11.3047C35.4288 11.2567 35.2581 11.225 35.1065 11.2096C34.9549 11.1933 34.8321 11.1856 34.7371 11.1856C34.5855 11.1856 34.455 11.1914 34.3437 11.2039C34.2324 11.2154 34.1413 11.2298 34.0693 11.2461C33.982 11.3259 33.9062 11.4593 33.8429 11.6466C33.7796 11.8339 33.7258 12.0529 33.6817 12.3035C33.6376 12.5542 33.604 12.8308 33.58 13.1333C33.556 13.4358 33.5445 13.746 33.5445 14.0649C33.5445 14.3991 33.556 14.7391 33.58 15.0858C33.604 15.4325 33.6395 15.7648 33.6874 16.0827C33.7354 16.4015 33.7949 16.6992 33.8659 16.9787C33.9379 17.2572 34.0213 17.4925 34.1163 17.6836V17.6798Z" fill="#501F0E"/>
<path d="M44.6616 17.2188C44.6616 16.1998 44.6779 15.1972 44.7096 14.2099C44.7412 13.2226 44.8055 12.2517 44.9005 11.2961L43.636 11.1175C43.5726 10.863 43.5208 10.6459 43.4805 10.4663C43.4402 10.2867 43.4086 10.11 43.3856 9.93523C43.3616 9.76044 43.3433 9.57124 43.3318 9.36764C43.3203 9.16499 43.3136 8.91241 43.3136 8.60893C43.7665 8.17867 44.2615 7.84638 44.7988 7.61205C45.3361 7.37771 45.954 7.25958 46.6534 7.25958C48.7056 7.25958 49.7313 8.29104 49.7313 10.352C49.7313 10.862 49.6891 11.4411 49.6056 12.0894C49.5221 12.7386 49.4243 13.4013 49.313 14.0774C49.2017 14.7545 49.0923 15.4104 48.9848 16.0481C48.8774 16.6848 48.7997 17.2467 48.7527 17.7317C48.8879 17.8748 49.0549 17.9746 49.2535 18.0303C49.3255 18.0303 49.4703 17.9132 49.6891 17.6779C49.9078 17.4435 50.1563 17.1487 50.4346 16.7943C50.7128 16.4399 50.993 16.0539 51.276 15.6361C51.5581 15.2183 51.8027 14.8178 52.01 14.4356C52.0416 13.9103 52.0771 13.3869 52.1174 12.8654C52.1568 12.3439 52.2086 11.8205 52.2728 11.2951L51.0198 11.0445C50.9718 10.8457 50.9306 10.6603 50.8941 10.4894C50.8586 10.3184 50.8289 10.1532 50.8049 9.99381C50.7809 9.83439 50.7646 9.67784 50.7569 9.52226C50.7493 9.36668 50.7454 9.20149 50.7454 9.0267C50.7454 8.971 50.7473 8.91721 50.7512 8.86535C50.755 8.81349 50.7569 8.75587 50.7569 8.69248C50.8759 8.54939 51.0352 8.3938 51.2338 8.22669C51.4324 8.05959 51.6694 7.904 51.9438 7.76091C52.2182 7.61781 52.53 7.49776 52.8802 7.40268C53.2304 7.3076 53.6074 7.25958 54.0133 7.25958C56.0655 7.25958 57.0912 8.29104 57.0912 10.352C57.0912 10.8217 57.0432 11.3768 56.9482 12.0173C56.8522 12.6579 56.7352 13.3206 56.5961 14.0054C56.457 14.6901 56.3054 15.3624 56.1432 16.0231C55.9801 16.6839 55.8314 17.2726 55.6961 17.7902L57.0681 17.1929C57.2591 17.4003 57.4519 17.6788 57.6467 18.0284C57.8414 18.379 57.9671 18.8083 58.0228 19.3182C57.9508 19.4613 57.8059 19.663 57.5872 19.9213C57.3684 20.1797 57.0902 20.439 56.7525 20.6973C56.4147 20.9557 56.031 21.1795 55.6011 21.3658C55.1713 21.5531 54.7146 21.6462 54.2291 21.6462C53.8876 21.6462 53.5873 21.5924 53.3282 21.4849C53.0701 21.3773 52.8552 21.2284 52.6844 21.0373C52.5137 20.8462 52.3861 20.6234 52.3026 20.3689C52.2191 20.1144 52.1769 19.8397 52.1769 19.5449C52.1769 19.4652 52.1884 19.3317 52.2124 19.1444C52.2364 18.9571 52.2661 18.7602 52.3016 18.5538C52.3371 18.3473 52.3755 18.1494 52.4148 17.9631C52.4542 17.7758 52.4868 17.6347 52.5098 17.5396L52.1759 17.432C51.9687 18.1485 51.7269 18.7698 51.4487 19.2952C51.1704 19.8205 50.8596 20.2584 50.518 20.609C50.1765 20.9595 49.8061 21.2198 49.4089 21.3907C49.0108 21.5617 48.5934 21.6472 48.1559 21.6472C47.4565 21.6472 46.8798 21.5156 46.426 21.2534C45.9732 20.9903 45.6153 20.6484 45.3524 20.2268C45.0895 19.8051 44.9091 19.3307 44.8094 18.8054C44.7096 18.28 44.6607 17.7509 44.6607 17.2169L44.6616 17.2188Z" fill="#501F0E"/>
<path d="M65.1676 21.6491C64.1573 21.6491 63.2689 21.4618 62.5013 21.0882C61.7338 20.7137 61.0919 20.2008 60.5748 19.5478C60.0576 18.8947 59.6681 18.135 59.4062 17.2668C59.1433 16.3996 59.0128 15.468 59.0128 14.4731C59.0128 13.4781 59.1385 12.5427 59.3889 11.6668C59.6393 10.7909 60.0269 10.0274 60.5518 9.37436C61.0766 8.72129 61.7443 8.20652 62.556 7.82813C63.3677 7.44974 64.3377 7.26054 65.467 7.26054C65.7845 7.26054 66.129 7.27879 66.4984 7.31432C66.8678 7.34986 67.2381 7.41228 67.6075 7.49968C67.9769 7.58707 68.3386 7.70712 68.6926 7.8579C69.0466 8.00964 69.3671 8.19596 69.653 8.41877C69.9073 8.62621 70.1241 8.86727 70.3035 9.14194C70.4829 9.41661 70.6259 9.71145 70.7333 10.0255C70.8408 10.3405 70.9185 10.6747 70.9655 11.0291C71.0135 11.3835 71.0375 11.7398 71.0375 12.098C71.0375 12.3688 71.026 12.6378 71.002 12.9038C70.978 13.1708 70.9463 13.431 70.907 13.6865C70.8427 13.7979 70.7237 13.941 70.5491 14.1168C70.3745 14.2925 70.1653 14.475 69.9226 14.6661C69.6799 14.8572 69.4179 15.0426 69.1349 15.2212C68.8528 15.3998 68.5679 15.542 68.282 15.6447C67.9481 15.6687 67.6017 15.6803 67.2438 15.6803C66.5444 15.6803 65.8699 15.6515 65.2214 15.5919C64.5728 15.5333 64.046 15.4719 63.6412 15.4094C63.6651 15.6793 63.7189 15.9617 63.8023 16.2555C63.8858 16.5494 64.0134 16.8193 64.1842 17.0652C64.355 17.311 64.5814 17.5156 64.8644 17.6788C65.1465 17.8421 65.5025 17.9228 65.9323 17.9228C65.9879 17.9228 66.0436 17.9209 66.0992 17.917C66.1549 17.9132 66.2144 17.9074 66.2787 17.8997C66.5415 17.8767 66.8275 17.8258 67.1374 17.747C67.4472 17.6683 67.7639 17.579 68.0853 17.4762C68.4076 17.3744 68.7252 17.2649 69.0399 17.1468C69.3537 17.0296 69.6463 16.9115 69.9169 16.7943C70.0598 16.9365 70.1855 17.0748 70.2929 17.2092C70.4004 17.3437 70.4916 17.4935 70.5673 17.6596C70.6431 17.8258 70.7065 18.015 70.7583 18.2282C70.8101 18.4414 70.8513 18.694 70.884 18.9859C70.7967 19.0897 70.6614 19.2251 70.4781 19.3922C70.2949 19.5593 70.0723 19.7427 69.8103 19.9415C69.5475 20.1403 69.2472 20.342 68.9094 20.5446C68.5717 20.7473 68.2052 20.9307 67.8118 21.094C67.4185 21.2572 66.9982 21.3907 66.5531 21.4945C66.1079 21.5982 65.6464 21.65 65.1695 21.65L65.1676 21.6491ZM64.2015 6.31648C64.0585 6.22908 63.9175 6.11384 63.7784 5.96978C63.6392 5.82668 63.5078 5.6711 63.385 5.50399C63.2612 5.33688 63.1528 5.16209 63.0569 4.97866C62.9609 4.79522 62.8899 4.61659 62.8419 4.4418L66.814 0C67.2832 0.22281 67.6909 0.463868 68.0363 0.722212C68.3827 0.980557 68.6744 1.24562 68.9133 1.51645C69.1522 1.78728 69.3431 2.06388 69.4861 2.34623C69.629 2.62858 69.7365 2.90518 69.8084 3.17601C69.4343 3.52655 69.0207 3.86076 68.5679 4.17865C68.115 4.4975 67.6449 4.78946 67.1604 5.05645C66.6749 5.32344 66.1798 5.56353 65.6752 5.77866C65.1705 5.99379 64.6793 6.17242 64.2015 6.31648ZM66.862 13.0824L66.6951 11.7446C66.6317 11.6793 66.5463 11.6207 66.4389 11.5679C66.3314 11.5151 66.2125 11.4728 66.081 11.4402C65.9496 11.4075 65.8124 11.3854 65.6694 11.3729C65.5265 11.3604 65.3835 11.3547 65.2396 11.3547C65.0084 11.3547 64.7877 11.3729 64.5776 11.4094C64.3665 11.4459 64.2379 11.4882 64.19 11.5372C64.0547 11.7965 63.9453 12.0788 63.8618 12.3833C63.7784 12.6877 63.7169 13.0219 63.6767 13.3869L66.862 13.0815V13.0824Z" fill="#501F0E"/>
<path d="M48.1558 37.2506C47.5907 37.2506 47.0937 37.1488 46.6648 36.9461C46.235 36.7435 45.8637 36.4669 45.5499 36.1164C45.2352 35.7658 44.9733 35.3557 44.7622 34.8861C44.5512 34.4165 44.3823 33.919 44.2557 33.3937C44.1281 32.8683 44.0388 32.3247 43.987 31.7639C43.9352 31.203 43.9093 30.6556 43.9093 30.1216C43.9093 29.5876 43.9467 28.997 44.0225 28.4198C44.0983 27.8426 44.2192 27.2837 44.3861 26.742C44.5531 26.2003 44.7661 25.6952 45.0242 25.2255C45.2823 24.7559 45.5912 24.3458 45.9491 23.9953C46.3069 23.6447 46.7185 23.3682 47.1839 23.1655C47.6492 22.9629 48.1759 22.8611 48.7641 22.8611C49.05 22.8611 49.3762 22.8889 49.7427 22.9446C50.1082 23.0003 50.4824 23.0935 50.8643 23.2251C51.2461 23.3566 51.6194 23.5276 51.9859 23.7389C52.3514 23.9501 52.6853 24.2104 52.9875 24.5206L53.2264 24.4966C53.2821 24.3775 53.3492 24.2459 53.4289 24.1029C53.5085 23.9598 53.5939 23.8147 53.685 23.6668C53.7762 23.5199 53.8721 23.3768 53.9709 23.2366C54.0707 23.0973 54.1753 22.9725 54.2866 22.8601H56.9231C56.9788 23.082 57.0287 23.4056 57.0719 23.832C57.115 24.2584 57.1371 24.7261 57.1371 25.2352C57.1371 25.5963 57.1256 26.0736 57.1016 26.669C57.0776 27.2645 57.0402 27.93 56.9884 28.6685C56.9366 29.4071 56.8752 30.1946 56.8032 31.0311C56.7313 31.8676 56.6459 32.7166 56.547 33.578C56.4473 34.4395 56.334 35.2866 56.2074 36.1192C56.0798 36.9519 55.9407 37.7221 55.79 38.4309L55.814 38.4549L58.0572 37.774C58.3114 38.0285 58.4803 38.3089 58.5638 38.6162C58.6473 38.9226 58.6895 39.2155 58.6895 39.494C58.6895 39.5574 58.6875 39.6218 58.6837 39.6852C58.6799 39.7485 58.6732 39.8119 58.6655 39.8763C58.3709 40.3065 58.0294 40.6878 57.6398 41.023C57.4729 41.1661 57.2858 41.3073 57.0795 41.4465C56.8723 41.5858 56.6459 41.7097 56.3993 41.8163C56.1527 41.9238 55.8879 42.0093 55.6058 42.0727C55.3238 42.1361 55.0234 42.1687 54.7049 42.1687C54.3634 42.1687 54.0323 42.1245 53.7148 42.0362C53.3962 41.9478 53.1161 41.7932 52.8733 41.5723C52.6306 41.3514 52.4378 41.0518 52.2948 40.6744C52.1518 40.296 52.0837 39.8177 52.0924 39.2395C52.1 38.7488 52.1125 38.2888 52.1279 37.8595C52.1442 37.4292 52.171 36.9836 52.2113 36.5207C52.2507 36.0587 52.3025 35.5526 52.3668 35.0013C52.4301 34.451 52.5097 33.8095 52.6057 33.0777L52.2478 32.9682C51.8419 34.4232 51.3075 35.5007 50.6436 36.1999C49.9797 36.8991 49.1507 37.2487 48.1567 37.2487L48.1558 37.2506ZM49.2658 33.2813C49.3608 33.289 49.5287 33.1776 49.7667 32.9471C50.0056 32.7166 50.2675 32.4198 50.5544 32.0578C50.8403 31.6957 51.1252 31.2981 51.4073 30.864C51.6894 30.4299 51.9187 30.0102 52.0933 29.604C52.1173 29.4609 52.1355 29.3014 52.147 29.1266C52.1586 28.9519 52.1653 28.7761 52.1653 28.6013C52.1653 28.3468 52.1557 28.1077 52.1355 27.8849C52.1154 27.6621 52.0933 27.5065 52.0703 27.4191C51.8391 27.2913 51.6126 27.1867 51.39 27.1031C51.1675 27.0196 50.9602 26.9542 50.7693 26.9062C50.5784 26.8582 50.4076 26.8265 50.256 26.8111C50.1044 26.7948 49.9816 26.7871 49.8866 26.7871C49.735 26.7871 49.6045 26.7929 49.4932 26.8054C49.3819 26.8169 49.2908 26.8313 49.2188 26.8476C49.1315 26.9274 49.0557 27.0608 48.9924 27.2481C48.9291 27.4354 48.8754 27.6544 48.8312 27.905C48.7871 28.1557 48.7535 28.4323 48.7295 28.7348C48.7055 29.0373 48.694 29.3475 48.694 29.6664C48.694 30.0006 48.7055 30.3406 48.7295 30.6873C48.7535 31.034 48.789 31.3663 48.837 31.6842C48.885 32.003 48.9444 32.3007 49.0154 32.5802C49.0874 32.8587 49.1709 33.094 49.2658 33.2851V33.2813Z" fill="#501F0E"/>
<path d="M59.8111 32.8213C59.8111 31.8023 59.8265 30.7996 59.8591 29.8124C59.8908 28.8251 59.955 27.8541 60.05 26.8985L58.7855 26.7199C58.7212 26.4654 58.6704 26.2484 58.6301 26.0688C58.5898 25.8892 58.5581 25.7125 58.5341 25.5377C58.5101 25.3629 58.4919 25.1737 58.4804 24.9701C58.4689 24.7665 58.4622 24.5149 58.4622 24.2114C58.915 23.7811 59.4101 23.4488 59.9474 23.2145C60.4847 22.9802 61.1025 22.862 61.802 22.862C63.8532 22.862 64.8799 23.8935 64.8799 25.9545C64.8799 26.4644 64.8376 27.0436 64.7551 27.6918C64.6716 28.341 64.5738 29.0037 64.4625 29.6798C64.3512 30.3569 64.2418 31.0129 64.1344 31.6505C64.0269 32.2873 63.9492 32.8491 63.9022 33.3341C64.0375 33.4772 64.2044 33.5771 64.403 33.6328C64.475 33.6328 64.6198 33.5156 64.8386 33.2803C65.0573 33.046 65.3058 32.7512 65.5841 32.3968C65.8623 32.0424 66.1425 31.6563 66.4255 31.2385C66.7076 30.8208 66.9522 30.4203 67.1595 30.0381C67.1911 29.5127 67.2266 28.9893 67.2669 28.4678C67.3063 27.9463 67.3581 27.4229 67.4224 26.8976L66.1693 26.6469C66.1214 26.4481 66.0801 26.2628 66.0446 26.0918C66.0091 25.9209 65.9794 25.7557 65.9554 25.5963C65.9314 25.4368 65.916 25.2803 65.9074 25.1247C65.8997 24.9691 65.8959 24.8039 65.8959 24.6291C65.8959 24.5734 65.8978 24.5197 65.9017 24.4678C65.9055 24.4159 65.9074 24.3583 65.9074 24.2949C66.0264 24.1518 66.1856 23.9962 66.3843 23.8291C66.5829 23.662 66.8198 23.5065 67.0942 23.3634C67.3686 23.2203 67.6805 23.1002 68.0306 23.0051C68.3808 22.91 68.7579 22.862 69.1637 22.862C71.215 22.862 72.2416 23.8935 72.2416 25.9545C72.2416 26.4241 72.1937 26.9792 72.0987 27.6198C72.0037 28.2604 71.8857 28.923 71.7466 29.6078C71.6074 30.2926 71.4558 30.9648 71.2937 31.6256C71.1306 32.2863 70.9819 32.875 70.8466 33.3927L72.2186 32.7953C72.4095 33.0028 72.6024 33.2813 72.7971 33.6309C72.9919 33.9814 73.1176 34.4107 73.1732 34.9207C73.1013 35.0638 72.9564 35.2655 72.7377 35.5238C72.5189 35.7821 72.2407 36.0414 71.9029 36.2998C71.5643 36.5581 71.1814 36.7819 70.7516 36.9682C70.3218 37.1555 69.8651 37.2487 69.3796 37.2487C69.0381 37.2487 68.7368 37.1949 68.4787 37.0873C68.2206 36.9797 68.0057 36.8309 67.8349 36.6398C67.6641 36.4487 67.5365 36.2258 67.4531 35.9713C67.3696 35.7168 67.3274 35.4422 67.3274 35.1473C67.3274 35.0676 67.3389 34.9341 67.3629 34.7468C67.3869 34.5596 67.4166 34.3627 67.4521 34.1562C67.4876 33.9488 67.526 33.7519 67.5653 33.5646C67.6047 33.3773 67.6373 33.2361 67.6613 33.1411L67.3274 33.0335C67.1201 33.75 66.8784 34.3704 66.6001 34.8967C66.3219 35.422 66.012 35.8599 65.6695 36.2105C65.3269 36.561 64.9576 36.8213 64.5604 36.9922C64.1631 37.1632 63.7448 37.2487 63.3083 37.2487C62.6089 37.2487 62.0322 37.1171 61.5784 36.8549C61.1246 36.5927 60.7677 36.2499 60.5048 35.8282C60.2419 35.4066 60.0615 34.9322 59.9618 34.4069C59.862 33.8815 59.8131 33.3524 59.8131 32.8184L59.8111 32.8213Z" fill="#501F0E"/>
<path d="M80.3172 37.2506C79.3069 37.2506 78.4184 37.0633 77.6509 36.6897C76.8833 36.3161 76.2415 35.8023 75.7243 35.1493C75.2072 34.4962 74.8176 33.7365 74.5557 32.8683C74.2928 32.0011 74.1624 31.0695 74.1624 30.0746C74.1624 29.0796 74.288 28.1442 74.5385 27.2683C74.7889 26.3924 75.1765 25.6289 75.7013 24.9759C76.2261 24.3228 76.8939 23.808 77.7056 23.4296C78.5172 23.0513 79.4872 22.8621 80.6165 22.8621C80.9341 22.8621 81.2785 22.8803 81.6479 22.9158C82.0173 22.9514 82.3876 23.0138 82.757 23.1012C83.1264 23.1886 83.4881 23.3086 83.8421 23.4594C84.1962 23.6112 84.5166 23.7975 84.8025 24.0203C85.0568 24.2277 85.2736 24.4688 85.453 24.7435C85.6325 25.0181 85.7754 25.313 85.8829 25.627C85.9903 25.942 86.068 26.2762 86.115 26.6306C86.163 26.985 86.187 27.3413 86.187 27.6995C86.187 27.9704 86.1755 28.2393 86.1515 28.5053C86.1275 28.7723 86.0959 29.0326 86.0565 29.288C85.9922 29.3994 85.8733 29.5425 85.6987 29.7183C85.524 29.894 85.3149 30.0765 85.0721 30.2676C84.8294 30.4587 84.5675 30.6441 84.2844 30.8227C84.0024 31.0014 83.7174 31.1435 83.4315 31.2463C83.0976 31.2703 82.7513 31.2818 82.3934 31.2818C81.694 31.2818 81.0195 31.253 80.3709 31.1934C79.7223 31.1348 79.1956 31.0734 78.7907 31.011C78.8147 31.2808 78.8684 31.5632 78.9519 31.8571C79.0353 32.1509 79.1629 32.4208 79.3337 32.6667C79.5045 32.9125 79.7309 33.1171 80.014 33.2804C80.296 33.4436 80.652 33.5243 81.0818 33.5243C81.1375 33.5243 81.1931 33.5224 81.2488 33.5185C81.3044 33.5147 81.3639 33.5089 81.4282 33.5012C81.6911 33.4772 81.977 33.4263 82.2869 33.3485C82.5968 33.2698 82.9134 33.1805 83.2348 33.0777C83.5572 32.9759 83.8748 32.8664 84.1895 32.7483C84.5032 32.6311 84.7958 32.513 85.0664 32.3958C85.2093 32.538 85.335 32.6763 85.4425 32.8107C85.5499 32.9452 85.6411 33.095 85.7169 33.2611C85.7927 33.4273 85.856 33.6165 85.9078 33.8297C85.9596 34.0429 86.0009 34.2955 86.0335 34.5874C85.9462 34.6912 85.8109 34.8266 85.6277 34.9937C85.4444 35.1608 85.2218 35.3442 84.9599 35.543C84.697 35.7418 84.3967 35.9435 84.059 36.1462C83.7212 36.3488 83.3547 36.5322 82.9614 36.6955C82.568 36.8588 82.1478 36.9923 81.7026 37.096C81.2574 37.1997 80.7959 37.2516 80.3191 37.2516L80.3172 37.2506ZM79.351 21.919C79.208 21.8316 79.067 21.7163 78.9279 21.5723C78.7888 21.4292 78.6573 21.2736 78.5345 21.1065C78.4108 20.9394 78.3023 20.7646 78.2064 20.5811C78.1104 20.3977 78.0394 20.2191 77.9915 20.0443L81.9636 15.6025C82.4327 15.8253 82.8405 16.0663 83.1859 16.3247C83.5322 16.583 83.8239 16.8481 84.0628 17.1189C84.3017 17.3898 84.4926 17.6664 84.6356 17.9487C84.7785 18.2311 84.886 18.5077 84.958 18.7785C84.5838 19.129 84.1703 19.4632 83.7174 19.7811C83.2646 20.1 82.7944 20.3919 82.3099 20.6589C81.8244 20.9259 81.3294 21.166 80.8247 21.3811C80.32 21.5963 79.8288 21.7749 79.351 21.919ZM82.0115 28.6849L81.8446 27.3471C81.7813 27.2818 81.6959 27.2232 81.5884 27.1704C81.481 27.1175 81.362 27.0753 81.2305 27.0426C81.0991 27.01 80.9619 26.9879 80.8189 26.9754C80.676 26.9629 80.533 26.9572 80.3891 26.9572C80.1579 26.9572 79.9372 26.9754 79.7271 27.0119C79.516 27.0484 79.3875 27.0906 79.3395 27.1396C79.2042 27.3989 79.0948 27.6813 79.0114 27.9857C78.9279 28.2902 78.8665 28.6244 78.8262 28.9893L82.0115 28.6839V28.6849Z" fill="#501F0E"/>
<path d="M36.9324 46.4732C37.2442 46.0372 37.6308 45.6991 38.0904 45.4581C38.55 45.218 39.0479 45.0979 39.5823 45.0979C40.275 45.0979 40.8152 45.266 41.2038 45.6031C41.5914 45.9392 41.8063 46.4069 41.8466 47.0043H40.8382C40.8037 46.6605 40.6646 46.3897 40.4218 46.1909C40.1781 45.9921 39.851 45.8922 39.4394 45.8922C38.904 45.8922 38.4396 46.0756 38.0443 46.4434C37.65 46.8113 37.3938 47.3308 37.2778 48.0041C37.2432 48.2307 37.2259 48.4199 37.2259 48.5707C37.2259 49.072 37.3593 49.4581 37.627 49.7299C37.8947 50.0017 38.2516 50.1371 38.6977 50.1371C39.1093 50.1371 39.4682 50.0411 39.7733 49.849C40.0784 49.6569 40.3134 49.3822 40.4784 49.025H41.4868C41.2402 49.6022 40.8593 50.0641 40.3441 50.4108C39.8299 50.7575 39.2331 50.9313 38.5528 50.9313C37.8726 50.9313 37.2854 50.7287 36.87 50.3234C36.4546 49.9181 36.2473 49.3649 36.2473 48.6648C36.2473 48.4516 36.2675 48.2317 36.3087 48.005C36.4114 47.4211 36.6186 46.9111 36.9314 46.4751L36.9324 46.4732Z" fill="black"/>
<path d="M48.413 45.1911L47.4142 50.8363H46.4778L46.6217 50.0123C46.3953 50.3004 46.1074 50.5241 45.7572 50.6816C45.407 50.8391 45.0434 50.9189 44.6663 50.9189C44.0763 50.9189 43.6042 50.7594 43.2512 50.4396C42.8981 50.1198 42.7216 49.6617 42.7216 49.0644C42.7216 48.9136 42.7388 48.7244 42.7734 48.4977L43.3596 45.1911H44.2854L43.7299 48.3748C43.7021 48.5189 43.6887 48.6706 43.6887 48.8281C43.6887 49.2468 43.8038 49.5647 44.0331 49.7808C44.2634 49.9969 44.5838 50.1054 44.9954 50.1054C45.4895 50.1054 45.9098 49.9508 46.2561 49.6415C46.6025 49.3323 46.8241 48.8828 46.9201 48.2922V48.3229L47.4756 45.1911H48.412H48.413Z" fill="black"/>
<path d="M51.7268 45.4225C52.1317 45.2065 52.574 45.0979 53.0546 45.0979C53.4941 45.0979 53.8836 45.1892 54.2232 45.3707C54.5629 45.5532 54.8248 45.8134 55.0109 46.1534C55.1961 46.4934 55.2892 46.8939 55.2892 47.3539C55.2892 47.5536 55.269 47.7659 55.2278 47.9925C55.1251 48.563 54.9169 49.0711 54.6051 49.5176C54.2933 49.9642 53.9124 50.3109 53.4624 50.5577C53.0124 50.8046 52.5375 50.9285 52.0367 50.9285C51.5358 50.9285 51.153 50.8199 50.8278 50.6038C50.5016 50.3878 50.2665 50.1179 50.1226 49.7952L49.474 53.5138H48.5376L49.9988 45.1901H50.9352L50.7501 46.2302C50.9966 45.9075 51.3229 45.6377 51.7277 45.4216L51.7268 45.4225ZM54.3105 47.5191C54.3105 47.0178 54.1628 46.625 53.8682 46.3397C53.5727 46.0545 53.1928 45.9123 52.7256 45.9123C52.3821 45.9123 52.0501 45.9969 51.7268 46.1649C51.4044 46.333 51.1281 46.5769 50.8978 46.8967C50.6676 47.2165 50.515 47.5853 50.4402 48.0041C50.4123 48.1481 50.3989 48.3066 50.3989 48.4775C50.3989 48.9789 50.5486 49.3755 50.847 49.6675C51.1454 49.9594 51.5243 50.1054 51.9839 50.1054C52.3341 50.1054 52.668 50.0209 52.9875 49.8528C53.307 49.6848 53.5804 49.4408 53.8107 49.121C54.0409 48.8012 54.1935 48.4257 54.2683 47.9925C54.2962 47.8485 54.3096 47.69 54.3096 47.5191H54.3105Z" fill="black"/>
<path d="M56.7236 46.4732C57.0354 46.0372 57.4221 45.6991 57.8817 45.4581C58.3412 45.218 58.8392 45.0979 59.3745 45.0979C60.0673 45.0979 60.6074 45.266 60.995 45.6031C61.3827 45.9392 61.5976 46.4069 61.6379 47.0043H60.6295C60.595 46.6605 60.4558 46.3897 60.2131 46.1909C59.9694 45.9921 59.6422 45.8922 59.2306 45.8922C58.6953 45.8922 58.2309 46.0756 57.8356 46.4434C57.4413 46.8113 57.1851 47.3308 57.069 48.0041C57.0345 48.2307 57.0172 48.4199 57.0172 48.5707C57.0172 49.072 57.1506 49.4581 57.4182 49.7299C57.6859 50.0017 58.0428 50.1371 58.489 50.1371C58.9006 50.1371 59.2594 50.0411 59.5645 49.849C59.8696 49.6569 60.1047 49.3822 60.2697 49.025H61.2781C61.0315 49.6022 60.6506 50.0641 60.1354 50.4108C59.6211 50.7575 59.0244 50.9313 58.3441 50.9313C57.6639 50.9313 57.0767 50.7287 56.6612 50.3234C56.2458 49.9181 56.0386 49.3649 56.0386 48.6648C56.0386 48.4516 56.0587 48.2317 56.1 48.005C56.2026 47.4211 56.4099 46.9111 56.7227 46.4751L56.7236 46.4732Z" fill="black"/>
<path d="M62.9715 46.4732C63.2833 46.0372 63.6642 45.6991 64.1142 45.4581C64.5632 45.218 65.042 45.0979 65.5495 45.0979C66.0571 45.0979 66.4514 45.2045 66.7738 45.4177C67.0962 45.6309 67.3197 45.8989 67.4425 46.2216L67.6277 45.1911H68.5746L67.5759 50.8363H66.6289L66.8246 49.7856C66.5781 50.115 66.2518 50.3887 65.847 50.6048C65.4421 50.8209 64.9959 50.9294 64.5085 50.9294C64.0691 50.9294 63.6815 50.8353 63.3457 50.6461C63.0099 50.4569 62.7489 50.188 62.5638 49.8375C62.3786 49.4869 62.2855 49.0816 62.2855 48.6216C62.2855 48.4151 62.3057 48.2058 62.3469 47.9935C62.4496 47.4163 62.6568 46.9102 62.9696 46.4742L62.9715 46.4732ZM67.1758 47.5402C67.1758 47.0389 67.0261 46.6422 66.7277 46.3503C66.4293 46.0583 66.0504 45.9123 65.5908 45.9123C65.2406 45.9123 64.9067 45.9949 64.5872 46.1592C64.2677 46.3243 63.9952 46.5644 63.7688 46.8804C63.5424 47.1964 63.3918 47.5671 63.316 47.9925C63.2881 48.1366 63.2747 48.2951 63.2747 48.466C63.2747 48.9741 63.4225 49.3745 63.717 49.6665C64.0116 49.9585 64.3896 50.1044 64.8491 50.1044C65.1993 50.1044 65.5332 50.0199 65.8527 49.8519C66.1722 49.6838 66.4457 49.4399 66.6759 49.12C66.9052 48.8002 67.0587 48.4286 67.1336 48.0021C67.1614 47.8581 67.1748 47.7035 67.1748 47.5383L67.1758 47.5402Z" fill="black"/>
<path d="M71.426 48.0137L73.5877 50.8363H72.3116L70.5414 48.3537L70.0991 50.8363H69.1627L70.5107 43.2127H71.4471L70.6547 47.6833L73.2691 45.1901H74.5663L71.427 48.0127L71.426 48.0137Z" fill="black"/>
<path d="M79.1399 45.3717C79.4863 45.5541 79.7501 45.8077 79.9324 46.1342C80.1138 46.4607 80.2049 46.8334 80.2049 47.2521C80.2049 47.3962 80.1876 47.5719 80.1531 47.7774C80.1253 47.9561 80.0811 48.1414 80.0197 48.3335H75.5123C75.4989 48.4708 75.4921 48.5707 75.4921 48.6322C75.4921 49.1057 75.6341 49.4754 75.9191 49.7395C76.2041 50.0036 76.5763 50.1361 77.0359 50.1361C77.4408 50.1361 77.7958 50.042 78.1009 49.8528C78.406 49.6636 78.6372 49.412 78.7955 49.096H79.8039C79.5563 49.6387 79.1774 50.0795 78.6669 50.4195C78.1555 50.7594 77.5636 50.9294 76.892 50.9294C76.1849 50.9294 75.6178 50.7249 75.189 50.3167C74.7601 49.9085 74.5461 49.3496 74.5461 48.6427C74.5461 48.4439 74.5663 48.2307 74.6075 48.0041C74.7102 47.4202 74.9194 46.9083 75.235 46.4694C75.5507 46.0295 75.9402 45.6915 76.4036 45.4543C76.867 45.217 77.3688 45.0989 77.9109 45.0989C78.3839 45.0989 78.7945 45.1901 79.1409 45.3717H79.1399ZM79.2378 47.2723C79.2378 46.8324 79.0987 46.4924 78.8214 46.2523C78.5432 46.0122 78.1815 45.8922 77.7353 45.8922C77.2546 45.8922 76.8191 46.0487 76.4286 46.3609C76.0371 46.673 75.7733 47.1042 75.6361 47.6535H79.2071C79.2272 47.5162 79.2378 47.3894 79.2378 47.2723Z" fill="black"/>
<path d="M81.3783 50.5068C81.0013 50.2255 80.8123 49.8471 80.8123 49.3736C80.8123 49.2843 80.8161 49.219 80.8228 49.1777H81.7391C81.7112 49.4735 81.7995 49.7136 82.002 49.8989C82.2044 50.0843 82.498 50.1774 82.8818 50.1774C83.2655 50.1774 83.5764 50.1035 83.8134 49.9556C84.0504 49.8077 84.1684 49.6002 84.1684 49.3323C84.1684 49.1056 84.0724 48.927 83.8805 48.7964C83.6887 48.6658 83.3931 48.5256 82.9959 48.3738C82.6457 48.2432 82.3579 48.1203 82.1315 48.0031C81.9051 47.8859 81.7132 47.7236 81.5549 47.5133C81.3966 47.3039 81.3179 47.0379 81.3179 46.7152C81.3179 46.3925 81.409 46.1179 81.5904 45.8701C81.7717 45.6223 82.0259 45.4321 82.3522 45.2987C82.6784 45.1652 83.0506 45.0979 83.4689 45.0979C84.0456 45.0979 84.5186 45.242 84.8889 45.5311C85.2593 45.8192 85.4444 46.1976 85.4444 46.6643C85.4444 46.7536 85.4406 46.8228 85.4339 46.8708H84.5387L84.5493 46.7469C84.5493 46.4722 84.4447 46.2542 84.2355 46.0929C84.0264 45.9315 83.7501 45.8509 83.4066 45.8509C83.0631 45.8509 82.7945 45.9267 82.5786 46.0775C82.3627 46.2283 82.2543 46.431 82.2543 46.6855C82.2543 46.9256 82.3541 47.1147 82.5527 47.2521C82.7513 47.3894 83.0602 47.5402 83.4785 47.7054C83.8287 47.8427 84.1098 47.9685 84.3228 48.0819C84.5358 48.1952 84.7172 48.3517 84.8678 48.5505C85.0184 48.7503 85.0942 49.001 85.0942 49.3025C85.0942 49.6319 84.9964 49.921 84.8006 50.1678C84.6049 50.4146 84.3353 50.6038 83.9928 50.7345C83.6493 50.8651 83.2617 50.9304 82.83 50.9304C82.2399 50.9304 81.7563 50.7902 81.3793 50.5078L81.3783 50.5068Z" fill="black"/>
</svg>
